<svg preserveAspectRatio="none" overflow="visible" style="display: block;" width="15.9161" height="15.9161" viewBox="0 0 15.9161 15.9161" fill="none" xmlns="http://www.w3.org/2000/svg">
<g id="Group">
<path id="Vector" d="M15.3667 6.02281C15.0633 6.02281 14.8174 6.26878 14.8174 6.57219V12.9562C14.8162 13.9836 13.9836 14.8162 12.9562 14.8174H2.95991C1.9325 14.8162 1.09991 13.9836 1.09875 12.9562V2.95991C1.09991 1.9325 1.9325 1.09991 2.95991 1.09875H9.34394C9.64734 1.09875 9.89331 0.852781 9.89331 0.549375C9.89331 0.245969 9.64734 0 9.34394 0H2.95991C1.32594 0.00184375 0.00184375 1.32597 0 2.95991V12.9562C0.00184375 14.5902 1.32597 15.9143 2.95991 15.9161H12.9562C14.5902 15.9143 15.9143 14.5902 15.9161 12.9562V6.57219C15.9161 6.26878 15.6702 6.02281 15.3667 6.02281Z" fill="#989DB5"/>
</g>
</svg>
