<svg preserveAspectRatio="none" overflow="visible" style="display: block;" width="15.9869" height="15.9869" viewBox="0 0 15.9869 15.9869" fill="none" xmlns="http://www.w3.org/2000/svg">
<g id="Icon" clip-path="url(#clip0_0_8)">
<path id="Vector" d="M9.99184 1.33225H3.99674C3.6434 1.33225 3.30454 1.47261 3.0547 1.72245C2.80485 1.9723 2.66449 2.31116 2.66449 2.66449V13.3225C2.66449 13.6758 2.80485 14.0146 3.0547 14.2645C3.30454 14.5143 3.6434 14.6547 3.99674 14.6547H11.9902C12.3435 14.6547 12.6824 14.5143 12.9322 14.2645C13.1821 14.0146 13.3225 13.6758 13.3225 13.3225V4.66286L9.99184 1.33225Z" stroke="#575757" stroke-width="1.33225" stroke-linecap="round" stroke-linejoin="round"/>
<path id="Vector_2" d="M9.32572 1.33225V3.99674C9.32572 4.35007 9.46608 4.68893 9.71592 4.93878C9.96577 5.18862 10.3046 5.32898 10.658 5.32898H13.3225" stroke="#575757" stroke-width="1.33225" stroke-linecap="round" stroke-linejoin="round"/>
<path id="Vector_3" d="M6.66123 5.9951H5.32898" stroke="#575757" stroke-width="1.33225" stroke-linecap="round" stroke-linejoin="round"/>
<path id="Vector_4" d="M10.658 8.65959H5.32898" stroke="#575757" stroke-width="1.33225" stroke-linecap="round" stroke-linejoin="round"/>
<path id="Vector_5" d="M10.658 11.3241H5.32898" stroke="#575757" stroke-width="1.33225" stroke-linecap="round" stroke-linejoin="round"/>
</g>
<defs>
<clipPath id="clip0_0_8">
<rect width="15.9869" height="15.9869" fill="white"/>
</clipPath>
</defs>
</svg>
