<svg preserveAspectRatio="none" overflow="visible" style="display: block;" width="8.71283" height="5.36855" viewBox="0 0 8.71283 5.36855" fill="none" xmlns="http://www.w3.org/2000/svg">
<path id="Vector" d="M4.40918 4.18663L7.85222 0.563369C7.88565 0.527963 7.92547 0.499986 7.96935 0.481093C8.01322 0.462201 8.06024 0.452779 8.10763 0.453384C8.15502 0.453989 8.20182 0.46461 8.24524 0.484618C8.28866 0.504625 8.32784 0.533611 8.36044 0.569861C8.42723 0.644006 8.46395 0.742673 8.4628 0.844897C8.46165 0.947121 8.42272 1.04484 8.35428 1.1173L4.65661 5.00833C4.62344 5.04353 4.58393 5.07141 4.54041 5.09033C4.49689 5.10926 4.45022 5.11885 4.40314 5.11854C4.35606 5.11824 4.30951 5.10805 4.26621 5.08857C4.22291 5.06909 4.18373 5.04071 4.15096 5.00509L0.354736 0.909575C0.28755 0.836257 0.25 0.738318 0.25 0.636397C0.25 0.534477 0.28755 0.436537 0.354736 0.363219C0.387751 0.327395 0.427252 0.298915 0.4709 0.279468C0.514548 0.260021 0.561455 0.25 0.608844 0.25C0.656234 0.25 0.703141 0.260021 0.746789 0.279468C0.790437 0.298915 0.829938 0.327395 0.862953 0.363219L4.40918 4.18663Z" fill="#989DB5" stroke="#989DB5" stroke-width="0.5"/>
</svg>
